<svg xmlns="http://www.w3.org/2000/svg" viewBox="0 0 25.87 29.27">
  <path fill="#ed436a" d="M13.57 29.27c.53 0 .98-.19 1.35-.56a1.94 1.94 0 0 0 .56-1.4L15.27 19l6.8 5.03c1.14.61 2.04.41 2.72-.61l.7-1.13c.66-1.1.46-1.98-.6-2.67l-7.82-5.03 7.72-5.04c.93-.62 1.1-1.5.5-2.66l-.7-1.14c-.74-.95-1.61-1.15-2.6-.62l-6.72 5.14.2-8.43c0-.48-.2-.9-.55-1.28A1.85 1.85 0 0 0 13.57 0h-1.3c-.55 0-1 .19-1.35.56-.37.38-.55.8-.55 1.28l.2 8.53-6.91-5.03a1.6 1.6 0 0 0-1.36-.2c-.5.13-.9.4-1.15.81l-.8 1.14C-.25 8.1-.08 9 .85 9.76l7.73 4.83-7.5 4.82c-1.03.75-1.2 1.68-.52 2.77l.7 1.03c.27.48.67.76 1.2.87.54.11 1 .02 1.4-.25l6.7-4.93-.2 8.42c0 .55.2 1.01.6 1.39.4.37.86.56 1.33.56h1.3z"/>
</svg>
