<svg xmlns="http://www.w3.org/2000/svg" viewBox="0 0 512 512" fill="#fff">
  <path d="M256 0C114.62 0 0 114.62 0 256s114.62 256 256 256 256-114.62 256-256S397.38 0 256 0zm0 469.33c-117.82 0-213.33-95.51-213.33-213.33S138.18 42.67 256 42.67 469.33 138.18 469.33 256 373.82 469.33 256 469.33z"/>
  <path d="M341.33 213.33A42.66 42.66 0 0 0 384 170.67 42.65 42.65 0 0 0 341.33 128a42.66 42.66 0 0 0-42.66 42.67 42.66 42.66 0 0 0 42.66 42.66zm-170.66 0a42.66 42.66 0 0 0 42.66-42.66A42.66 42.66 0 0 0 170.67 128 42.66 42.66 0 0 0 128 170.67a42.65 42.65 0 0 0 42.67 42.66zM384 256a21.33 21.33 0 0 0-21.33 21.33C362.67 333.43 312.1 384 256 384s-106.67-50.57-106.67-106.67a21.33 21.33 0 1 0-42.66 0c0 79.67 69.67 149.34 149.33 149.34S405.33 357 405.33 277.33A21.33 21.33 0 0 0 384 256z"/>
</svg>
